<?xml version="1.0" encoding="iso-8859-1"?>
<!-- Generator: Adobe Illustrator 19.0.0, SVG Export Plug-In . SVG Version: 6.00 Build 0)  -->
<svg xmlns="http://www.w3.org/2000/svg" xmlns:xlink="http://www.w3.org/1999/xlink" version="1.1" id="Layer_1" x="0px" y="0px" viewBox="0 0 512 512" style="enable-background:new 0 0 512 512;" xml:space="preserve">
<rect x="10.039" y="92.863" style="fill:#EFEFEF;" width="491.922" height="391.529"/>
<rect x="10.039" y="27.608" style="fill:#00AEEF;" width="491.922" height="65.255"/>
<path style="fill:#EF584F;" d="M397.949,249.22c-13.061,0-23.823,9.817-25.327,22.474c-1.503-12.656-12.265-22.474-25.327-22.474  c-14.09,0-25.513,11.423-25.513,25.513c0,26.836,50.837,56.695,50.837,56.695h0.005c0,0,50.837-29.86,50.837-56.695  C423.462,260.642,412.04,249.22,397.949,249.22z"/>
<g>
	<path style="fill:#231F20;" d="M501.961,17.569H10.039C4.496,17.569,0,22.064,0,27.608v456.784c0,5.544,4.496,10.039,10.039,10.039   h491.922c5.544,0,10.039-4.496,10.039-10.039V27.608C512,22.064,507.504,17.569,501.961,17.569z M20.078,37.647h471.843v45.176   H20.078V37.647z M491.922,474.353H20.078V102.902h471.843V474.353z"/>
	<path style="fill:#231F20;" d="M50.196,454.275h235.205c5.544,0,10.039-4.496,10.039-10.039v-52.204h166.364   c5.544,0,10.039-4.496,10.039-10.039V133.02c0-5.544-4.496-10.039-10.039-10.039H167.798c-5.544,0-10.039,4.496-10.039,10.039   v52.204H50.196c-5.544,0-10.039,4.496-10.039,10.039v248.973C40.157,449.779,44.652,454.275,50.196,454.275z M216.56,205.302   v42.165h-38.722v-42.165H216.56z M236.638,371.953v-42.165h38.723v42.165H236.638z M60.235,329.788h38.722v42.165H60.235V329.788z    M119.036,329.788h38.722v42.165h-38.722V329.788z M275.362,309.71h-38.723v-42.165h38.723V309.71z M216.56,309.71h-38.722v-42.165   h38.722V309.71z M177.838,329.788h38.722v42.165h-38.722V329.788z M295.44,267.545h17.034c-0.479,2.322-0.731,4.725-0.731,7.187   c0,12.373,7.645,24.542,17.302,34.978h-33.605L295.44,267.545L295.44,267.545z M331.821,274.732   c0-8.532,6.942-15.473,15.474-15.473c7.833,0,14.434,5.855,15.358,13.619c0.6,5.051,4.882,8.855,9.969,8.855   c5.087,0,9.37-3.805,9.97-8.856c0.922-7.763,7.523-13.618,15.357-13.618c8.532,0,15.473,6.941,15.473,15.473   c0,13.245-22.393,33.02-40.788,44.892C356.706,309.266,331.821,289.029,331.821,274.732z M433.501,274.732   c0-2.462-0.252-4.865-0.731-7.187h18.994v42.165h-35.566C425.855,299.274,433.501,287.106,433.501,274.732z M451.765,247.467   h-31.032c-2.33-1.95-4.912-3.605-7.69-4.914v-37.251h38.722V247.467z M392.964,239.538c-6.699,0.945-12.838,3.756-17.826,7.929   h-5.031c-4.498-3.764-9.931-6.421-15.866-7.6v-34.565h38.722L392.964,239.538L392.964,239.538z M334.162,241.705   c-3.529,1.409-6.781,3.36-9.651,5.762H295.44v-42.165h38.722V241.705z M275.362,247.467h-38.723v-42.165h38.723V247.467z    M157.759,309.71h-38.722v-42.165h38.722V309.71z M98.958,309.71H60.235v-42.165h38.722V309.71z M60.235,392.031h38.722v42.165   H60.235V392.031z M119.036,392.031h38.722v42.165h-38.722V392.031z M177.838,392.031h38.722v42.165h-38.722V392.031z    M275.362,434.196h-38.723v-42.165h38.723V434.196z M295.44,329.788h38.722v42.165H295.44V329.788z M354.241,331.389   c6.547,4.659,11.684,7.749,13.294,8.696c1.541,0.905,3.302,1.382,5.089,1.382c1.787,0,3.543-0.478,5.084-1.382   c1.768-1.038,7.787-4.663,15.255-10.108v41.976H354.24v-40.563H354.241z M451.765,371.953h-38.722v-42.165h38.722V371.953z    M451.765,185.224h-38.722v-42.165h38.722V185.224z M392.964,185.224h-38.722v-42.165h38.722L392.964,185.224L392.964,185.224z    M334.162,185.224H295.44v-42.165h38.722V185.224z M275.362,185.224h-38.723v-42.165h38.723V185.224z M177.838,143.059h38.722   v42.165h-38.722V143.059z M157.759,247.467h-38.722v-42.165h38.722V247.467z M60.235,205.302h38.722v42.165H60.235V205.302z"/>
	<path style="fill:#231F20;" d="M330.29,434.196h-1.004c-5.544,0-10.039,4.496-10.039,10.039s4.496,10.039,10.039,10.039h1.004   c5.544,0,10.039-4.496,10.039-10.039S335.834,434.196,330.29,434.196z"/>
	<path style="fill:#231F20;" d="M446.913,434.196h-61.575c-5.544,0-10.039,4.496-10.039,10.039s4.496,10.039,10.039,10.039h61.575   c5.544,0,10.039-4.496,10.039-10.039S452.456,434.196,446.913,434.196z"/>
</g>
<g>
</g>
<g>
</g>
<g>
</g>
<g>
</g>
<g>
</g>
<g>
</g>
<g>
</g>
<g>
</g>
<g>
</g>
<g>
</g>
<g>
</g>
<g>
</g>
<g>
</g>
<g>
</g>
<g>
</g>
</svg>
